# xmcd
#
# Track frame offsets: 
#        182
#        25832
#        38582
#        51107
#        68432
#        83657
#        97907
#        110807
#        127232
#        144257
#        157307
#        170657
#
# Disc length: 2401 seconds
#
# Revision: 1
# Processed by: cddbd v1.5.1PL0 Copyright (c) Steve Scherf et al.
# Submitted via: ExactAudioCopy v0.90b4
#
DISCID=9d095f0c
DTITLE=Howlin' Wolf - The Legendary Masters Series [Aim]
DYEAR=1995
DGENRE=Blues
TTITLE0=Red Rooster
TTITLE1=Worried About You
TTITLE2=Ain't Superstitious
TTITLE3=Goin' Down Slow
TTITLE4=Commit A Crime
TTITLE5=I Walked From Dallas
TTITLE6=My Mind Is Ramblin'
TTITLE7=Rockin' Daddy
TTITLE8=Sittin On The Top Of The World
TTITLE9=What A Woman
TTITLE10=Poor Boy
TTITLE11=Built For Comfort
EXTD=
EXTT0=
EXTT1=
EXTT2=
EXTT3=
EXTT4=
EXTT5=
EXTT6=
EXTT7=
EXTT8=
EXTT9=
EXTT10=
EXTT11=
PLAYORDER=
